<?xml version="1.0" standalone="no"?>
<!DOCTYPE svg PUBLIC "-//W3C//DTD SVG 20010904//EN"
 "http://www.w3.org/TR/2001/REC-SVG-20010904/DTD/svg10.dtd">
<svg version="1.0" xmlns="http://www.w3.org/2000/svg"
 width="813.000000pt" height="813.000000pt" viewBox="0 0 813.000000 813.000000"
 preserveAspectRatio="xMidYMid meet">
<metadata>
Created by potrace 1.14, written by Peter Selinger 2001-2017
</metadata>
<g transform="translate(0.000000,813.000000) scale(0.100000,-0.100000)"
fill="#000000" stroke="none">
<path d="M475 7574 c-215 -42 -390 -213 -440 -427 -12 -53 -14 -359 -15 -2112
-1 -2256 -5 -2097 60 -2230 73 -150 229 -274 395 -315 38 -9 378 -12 1452 -10
l1403 1 0 -505 0 -506 -678 0 c-761 0 -748 1 -819 -69 -67 -65 -73 -96 -73
-400 0 -258 1 -268 24 -316 12 -28 39 -65 59 -82 77 -67 -76 -63 2218 -63
1441 0 2093 3 2128 11 73 15 127 59 159 127 l27 57 0 270 c0 296 -4 320 -58
381 -16 20 -49 45 -71 57 -41 22 -42 22 -743 25 l-703 3 0 498 c0 451 2 499
16 505 9 3 642 6 1408 6 905 0 1410 3 1446 10 205 38 389 226 435 445 22 105
22 4095 0 4200 -47 226 -222 397 -450 440 -112 22 -7072 21 -7180 -1z m7135
-413 c51 -28 79 -63 90 -115 8 -36 10 -627 8 -2041 -3 -1967 -3 -1990 -23
-2030 -14 -28 -33 -46 -65 -62 l-45 -22 -3495 -3 c-2863 -2 -3502 -1 -3532 10
-46 17 -94 70 -108 121 -7 27 -9 665 -8 2042 3 1896 4 2006 21 2036 23 42 54
63 114 73 26 4 1616 7 3533 6 2933 -1 3489 -3 3510 -15z"/>
<path d="M3975 6910 c-86 -25 -172 -71 -251 -134 -55 -44 -73 -54 -95 -49 -66
13 -151 -51 -165 -123 -4 -20 -2 -53 5 -73 10 -36 8 -42 -34 -116 -24 -44 -46
-83 -48 -88 -2 -6 -56 -9 -133 -8 -288 5 -516 -66 -665 -207 -114 -107 -169
-240 -169 -407 1 -179 60 -358 190 -570 22 -36 40 -70 40 -76 0 -5 -16 -35
-35 -65 -93 -145 -167 -330 -187 -464 -7 -53 -17 -82 -33 -100 -33 -37 -45
-64 -45 -105 0 -52 36 -112 81 -133 26 -12 44 -32 64 -69 34 -66 142 -168 220
-209 147 -77 334 -116 539 -113 l128 2 42 -79 c149 -283 330 -451 554 -515 85
-24 169 -24 252 0 227 64 395 222 557 520 l40 74 124 -2 c128 -2 266 15 369
45 60 18 82 19 151 9 36 -6 54 -3 87 14 50 26 72 56 80 113 3 28 19 61 42 93
120 160 142 354 69 594 -26 87 -96 232 -153 319 l-46 71 44 68 c127 198 196
403 196 582 0 158 -52 285 -159 392 -148 148 -367 218 -678 219 l-128 1 -63
113 c-209 374 -511 557 -787 476z m306 -182 c82 -41 173 -118 237 -201 42 -54
142 -214 142 -227 0 -4 -28 -13 -62 -20 -102 -21 -277 -69 -368 -102 -47 -16
-95 -32 -107 -35 -13 -3 -89 17 -175 45 -84 28 -207 63 -273 77 -66 15 -122
28 -124 30 -1 2 12 31 30 64 22 40 40 61 52 61 10 0 36 9 57 20 47 24 80 81
80 139 0 37 5 44 52 81 106 84 177 110 294 107 81 -2 97 -6 165 -39z m-975
-571 c4 -3 -7 -51 -24 -104 -45 -139 -102 -381 -102 -432 0 -12 -29 -43 -77
-83 -87 -73 -224 -206 -295 -288 l-48 -55 -20 25 c-11 14 -38 60 -61 103 -120
229 -139 450 -52 594 36 61 44 70 108 119 83 65 204 107 352 124 87 9 208 8
219 -3z m1914 -13 c133 -28 215 -68 296 -148 55 -55 76 -84 94 -131 51 -136
32 -299 -57 -495 -31 -68 -93 -170 -104 -170 -4 0 -17 12 -29 28 -37 48 -232
242 -310 308 l-76 64 -23 122 c-29 150 -43 206 -82 326 -17 52 -28 101 -24
109 5 14 22 15 123 9 64 -4 151 -14 192 -22z m-1576 -30 c147 -32 228 -56 233
-70 2 -5 -27 -24 -64 -42 -118 -55 -220 -114 -425 -245 -9 -6 -19 -9 -22 -6
-10 10 61 273 99 363 13 30 20 35 38 31 12 -2 75 -16 141 -31z m1129 -87 c45
-136 78 -267 71 -279 -3 -5 -27 6 -52 25 -79 56 -250 156 -366 215 l-111 56
33 13 c69 28 355 93 377 86 6 -2 27 -54 48 -116z m-428 -172 c199 -101 267
-142 430 -258 75 -54 112 -86 117 -104 11 -39 28 -311 28 -439 0 -126 -17
-387 -28 -428 -8 -31 -172 -150 -349 -255 -132 -78 -401 -211 -431 -214 -21
-1 -197 75 -300 131 -109 58 -292 170 -372 228 -135 98 -121 76 -136 215 -21
200 -15 647 11 764 7 34 239 196 431 302 101 56 143 76 268 132 107 47 84 52
331 -74z m-1205 -649 c-3 -80 -3 -212 0 -292 3 -80 2 -148 -3 -151 -15 -9
-277 270 -277 295 0 5 16 30 36 54 52 64 236 248 243 244 3 -2 4 -70 1 -150z
m2210 -145 c0 -28 -255 -301 -282 -301 -3 0 -1 586 2 600 2 12 280 -284 280
-299z m-2458 -276 c71 -74 165 -164 209 -201 49 -41 79 -73 79 -85 0 -51 57
-293 102 -432 17 -53 28 -101 24 -105 -14 -13 -229 -4 -310 13 -147 31 -236
75 -322 162 -55 56 -59 70 -34 118 33 65 22 124 -38 187 -22 24 -24 32 -18 80
8 67 34 144 79 234 42 86 87 164 94 164 3 0 64 -61 135 -135z m2600 73 c158
-275 189 -497 90 -658 -27 -43 -30 -45 -70 -42 -83 7 -148 -35 -174 -113 -12
-36 -18 -41 -72 -57 -115 -35 -366 -46 -366 -16 0 6 18 65 39 132 21 68 52
189 67 271 l29 148 81 68 c44 37 137 126 205 198 68 72 126 131 129 131 3 0
22 -28 42 -62z m-1924 -607 c57 -34 154 -88 214 -118 83 -42 107 -58 95 -64
-44 -25 -387 -103 -398 -91 -23 24 -125 374 -114 392 3 5 27 -5 53 -24 26 -18
94 -61 150 -95z m1253 4 c-30 -114 -79 -265 -90 -277 -11 -12 -354 66 -400 92
-11 6 16 23 99 65 120 60 284 156 360 211 25 18 48 30 52 26 4 -4 -5 -57 -21
-117z m-555 -324 c82 -27 203 -62 269 -76 66 -15 122 -28 124 -30 7 -7 -69
-134 -127 -212 -75 -101 -159 -174 -251 -221 -72 -35 -79 -37 -176 -37 -97 0
-104 1 -180 39 -94 47 -205 151 -282 266 -51 77 -97 159 -91 165 2 2 57 15
123 30 66 15 183 48 260 74 77 26 150 49 161 49 12 1 88 -20 170 -47z"/>
<path d="M4053 5369 c-221 -41 -332 -286 -215 -473 96 -154 310 -196 451 -89
51 39 69 61 99 123 48 100 32 238 -38 328 -65 81 -195 130 -297 111z"/>
</g>
</svg>
